<svg width="30" height="33" viewBox="0 0 30 33" fill="none" xmlns="http://www.w3.org/2000/svg">
<g clip-path="url(#clip0_11_256)">
<path d="M15 0.449402C6.71578 0.449402 0 7.72701 0 16.704C0 25.6816 6.7159 32.9586 15 32.9586C23.2848 32.9586 30 25.6816 30 16.704C30 7.72765 23.2848 0.450291 14.9998 0.450291L15 0.449402ZM21.8788 23.8933C21.6101 24.3708 21.0333 24.5222 20.5927 24.2291C17.0708 21.898 12.6374 21.3699 7.41609 22.6627C7.17431 22.7223 6.92056 22.6755 6.71064 22.5324C6.50073 22.3894 6.35184 22.1619 6.29672 21.8999C6.26927 21.7702 6.26569 21.6359 6.28618 21.5047C6.30668 21.3735 6.35084 21.248 6.41615 21.1353C6.48145 21.0226 6.56662 20.925 6.66678 20.8481C6.76694 20.7711 6.88012 20.7163 6.99984 20.6867C12.7139 19.2721 17.615 19.8811 21.5689 22.4996C22.0096 22.7927 22.1493 23.4159 21.8788 23.8933ZM23.7148 19.4674C23.3761 20.0636 22.6561 20.2519 22.1063 19.8851C18.0743 17.1995 11.9282 16.4217 7.15922 17.9904C6.5407 18.1928 5.8875 17.8151 5.69977 17.146C5.51344 16.4758 5.86219 15.7692 6.47965 15.5655C11.9271 13.7742 18.6994 14.6419 23.3297 17.7252C23.8795 18.0922 24.0533 18.8723 23.7148 19.4674ZM23.8724 14.8586C19.0379 11.7468 11.0618 11.4606 6.44613 12.9789C5.70492 13.2225 4.92105 12.769 4.69652 11.9658C4.47188 11.1622 4.88988 10.3134 5.63168 10.0692C10.9301 8.32615 19.7384 8.66305 25.3042 12.2436C25.9724 12.6723 26.1908 13.6055 25.795 14.3269C25.401 15.0494 24.5375 15.2876 23.8731 14.8586H23.8724Z" fill="#1ED760"/>
</g>
<defs>
<clipPath id="clip0_11_256">
<rect width="30" height="32.5092" fill="white" transform="translate(0 0.449402)"/>
</clipPath>
</defs>
</svg>
